<svg xmlns="http://www.w3.org/2000/svg" width="1400" height="1170" viewBox="0 0 1400 1170">
<rect width="100%" height="100%" fill="#111"/>
<text x="80" y="22" fill="#eee" font-family="monospace" font-size="16">Pose Trace 0.000s-0.000s @ 60fps | </text>
<rect x="80" y="30" width="1280" height="200" fill="#1a1a1a" stroke="#333" stroke-width="1"/>
<line x1="80" y1="230" x2="1360" y2="230" stroke="#333" stroke-width="0.5"/>
<text x="72" y="234" fill="#888" font-family="monospace" font-size="10" text-anchor="end">-1</text>
<line x1="80" y1="190" x2="1360" y2="190" stroke="#333" stroke-width="0.5"/>
<text x="72" y="194" fill="#888" font-family="monospace" font-size="10" text-anchor="end">0</text>
<line x1="80" y1="150" x2="1360" y2="150" stroke="#333" stroke-width="0.5"/>
<text x="72" y="154" fill="#888" font-family="monospace" font-size="10" text-anchor="end">1</text>
<line x1="80" y1="110" x2="1360" y2="110" stroke="#333" stroke-width="0.5"/>
<text x="72" y="114" fill="#888" font-family="monospace" font-size="10" text-anchor="end">2</text>
<line x1="80" y1="70" x2="1360" y2="70" stroke="#333" stroke-width="0.5"/>
<text x="72" y="74" fill="#888" font-family="monospace" font-size="10" text-anchor="end">3</text>
<line x1="80" y1="30" x2="1360" y2="30" stroke="#333" stroke-width="0.5"/>
<text x="72" y="34" fill="#888" font-family="monospace" font-size="10" text-anchor="end">4</text>
<line x1="80" y1="190" x2="1360" y2="190" stroke="#666" stroke-width="1"/>
<text x="84" y="46" fill="#ccc" font-family="monospace" font-size="12" font-weight="bold">Mesh Y (jump height)</text>
<rect x="80" y="250" width="1280" height="200" fill="#1a1a1a" stroke="#333" stroke-width="1"/>
<line x1="80" y1="450" x2="1360" y2="450" stroke="#333" stroke-width="0.5"/>
<text x="72" y="454" fill="#888" font-family="monospace" font-size="10" text-anchor="end">-4</text>
<line x1="80" y1="416.6666666666667" x2="1360" y2="416.6666666666667" stroke="#333" stroke-width="0.5"/>
<text x="72" y="420.6666666666667" fill="#888" font-family="monospace" font-size="10" text-anchor="end">-3</text>
<line x1="80" y1="383.33333333333337" x2="1360" y2="383.33333333333337" stroke="#333" stroke-width="0.5"/>
<text x="72" y="387.33333333333337" fill="#888" font-family="monospace" font-size="10" text-anchor="end">-2</text>
<line x1="80" y1="350" x2="1360" y2="350" stroke="#333" stroke-width="0.5"/>
<text x="72" y="354" fill="#888" font-family="monospace" font-size="10" text-anchor="end">-1</text>
<line x1="80" y1="316.6666666666667" x2="1360" y2="316.6666666666667" stroke="#333" stroke-width="0.5"/>
<text x="72" y="320.6666666666667" fill="#888" font-family="monospace" font-size="10" text-anchor="end">0</text>
<line x1="80" y1="283.3333333333333" x2="1360" y2="283.3333333333333" stroke="#333" stroke-width="0.5"/>
<text x="72" y="287.3333333333333" fill="#888" font-family="monospace" font-size="10" text-anchor="end">1</text>
<line x1="80" y1="250" x2="1360" y2="250" stroke="#333" stroke-width="0.5"/>
<text x="72" y="254" fill="#888" font-family="monospace" font-size="10" text-anchor="end">2</text>
<line x1="80" y1="316.6666666666667" x2="1360" y2="316.6666666666667" stroke="#666" stroke-width="1"/>
<text x="84" y="266" fill="#ccc" font-family="monospace" font-size="12" font-weight="bold">Right Shoulder rx (uppercut arm)</text>
<rect x="80" y="470" width="1280" height="200" fill="#1a1a1a" stroke="#333" stroke-width="1"/>
<line x1="80" y1="670" x2="1360" y2="670" stroke="#333" stroke-width="0.5"/>
<text x="72" y="674" fill="#888" font-family="monospace" font-size="10" text-anchor="end">-4</text>
<line x1="80" y1="636.6666666666666" x2="1360" y2="636.6666666666666" stroke="#333" stroke-width="0.5"/>
<text x="72" y="640.6666666666666" fill="#888" font-family="monospace" font-size="10" text-anchor="end">-3</text>
<line x1="80" y1="603.3333333333334" x2="1360" y2="603.3333333333334" stroke="#333" stroke-width="0.5"/>
<text x="72" y="607.3333333333334" fill="#888" font-family="monospace" font-size="10" text-anchor="end">-2</text>
<line x1="80" y1="570" x2="1360" y2="570" stroke="#333" stroke-width="0.5"/>
<text x="72" y="574" fill="#888" font-family="monospace" font-size="10" text-anchor="end">-1</text>
<line x1="80" y1="536.6666666666667" x2="1360" y2="536.6666666666667" stroke="#333" stroke-width="0.5"/>
<text x="72" y="540.6666666666667" fill="#888" font-family="monospace" font-size="10" text-anchor="end">0</text>
<line x1="80" y1="503.3333333333333" x2="1360" y2="503.3333333333333" stroke="#333" stroke-width="0.5"/>
<text x="72" y="507.3333333333333" fill="#888" font-family="monospace" font-size="10" text-anchor="end">1</text>
<line x1="80" y1="470" x2="1360" y2="470" stroke="#333" stroke-width="0.5"/>
<text x="72" y="474" fill="#888" font-family="monospace" font-size="10" text-anchor="end">2</text>
<line x1="80" y1="536.6666666666667" x2="1360" y2="536.6666666666667" stroke="#666" stroke-width="1"/>
<text x="84" y="486" fill="#ccc" font-family="monospace" font-size="12" font-weight="bold">Left Shoulder rx (guard arm)</text>
<rect x="80" y="690" width="1280" height="200" fill="#1a1a1a" stroke="#333" stroke-width="1"/>
<line x1="80" y1="890" x2="1360" y2="890" stroke="#333" stroke-width="0.5"/>
<text x="72" y="894" fill="#888" font-family="monospace" font-size="10" text-anchor="end">-4</text>
<line x1="80" y1="865" x2="1360" y2="865" stroke="#333" stroke-width="0.5"/>
<text x="72" y="869" fill="#888" font-family="monospace" font-size="10" text-anchor="end">-3</text>
<line x1="80" y1="840" x2="1360" y2="840" stroke="#333" stroke-width="0.5"/>
<text x="72" y="844" fill="#888" font-family="monospace" font-size="10" text-anchor="end">-2</text>
<line x1="80" y1="815" x2="1360" y2="815" stroke="#333" stroke-width="0.5"/>
<text x="72" y="819" fill="#888" font-family="monospace" font-size="10" text-anchor="end">-1</text>
<line x1="80" y1="790" x2="1360" y2="790" stroke="#333" stroke-width="0.5"/>
<text x="72" y="794" fill="#888" font-family="monospace" font-size="10" text-anchor="end">0</text>
<line x1="80" y1="765" x2="1360" y2="765" stroke="#333" stroke-width="0.5"/>
<text x="72" y="769" fill="#888" font-family="monospace" font-size="10" text-anchor="end">1</text>
<line x1="80" y1="740" x2="1360" y2="740" stroke="#333" stroke-width="0.5"/>
<text x="72" y="744" fill="#888" font-family="monospace" font-size="10" text-anchor="end">2</text>
<line x1="80" y1="715" x2="1360" y2="715" stroke="#333" stroke-width="0.5"/>
<text x="72" y="719" fill="#888" font-family="monospace" font-size="10" text-anchor="end">3</text>
<line x1="80" y1="690" x2="1360" y2="690" stroke="#333" stroke-width="0.5"/>
<text x="72" y="694" fill="#888" font-family="monospace" font-size="10" text-anchor="end">4</text>
<line x1="80" y1="790" x2="1360" y2="790" stroke="#666" stroke-width="1"/>
<text x="84" y="706" fill="#ccc" font-family="monospace" font-size="12" font-weight="bold">Right Elbow rx</text>
<rect x="80" y="910" width="1280" height="200" fill="#1a1a1a" stroke="#333" stroke-width="1"/>
<line x1="80" y1="1110" x2="1360" y2="1110" stroke="#333" stroke-width="0.5"/>
<text x="72" y="1114" fill="#888" font-family="monospace" font-size="10" text-anchor="end">-4</text>
<line x1="80" y1="1085" x2="1360" y2="1085" stroke="#333" stroke-width="0.5"/>
<text x="72" y="1089" fill="#888" font-family="monospace" font-size="10" text-anchor="end">-3</text>
<line x1="80" y1="1060" x2="1360" y2="1060" stroke="#333" stroke-width="0.5"/>
<text x="72" y="1064" fill="#888" font-family="monospace" font-size="10" text-anchor="end">-2</text>
<line x1="80" y1="1035" x2="1360" y2="1035" stroke="#333" stroke-width="0.5"/>
<text x="72" y="1039" fill="#888" font-family="monospace" font-size="10" text-anchor="end">-1</text>
<line x1="80" y1="1010" x2="1360" y2="1010" stroke="#333" stroke-width="0.5"/>
<text x="72" y="1014" fill="#888" font-family="monospace" font-size="10" text-anchor="end">0</text>
<line x1="80" y1="985" x2="1360" y2="985" stroke="#333" stroke-width="0.5"/>
<text x="72" y="989" fill="#888" font-family="monospace" font-size="10" text-anchor="end">1</text>
<line x1="80" y1="960" x2="1360" y2="960" stroke="#333" stroke-width="0.5"/>
<text x="72" y="964" fill="#888" font-family="monospace" font-size="10" text-anchor="end">2</text>
<line x1="80" y1="935" x2="1360" y2="935" stroke="#333" stroke-width="0.5"/>
<text x="72" y="939" fill="#888" font-family="monospace" font-size="10" text-anchor="end">3</text>
<line x1="80" y1="910" x2="1360" y2="910" stroke="#333" stroke-width="0.5"/>
<text x="72" y="914" fill="#888" font-family="monospace" font-size="10" text-anchor="end">4</text>
<line x1="80" y1="1010" x2="1360" y2="1010" stroke="#666" stroke-width="1"/>
<text x="84" y="926" fill="#ccc" font-family="monospace" font-size="12" font-weight="bold">Left Elbow rx</text>
</svg>
